<?xml version="1.0" standalone="no"?>
<!DOCTYPE svg PUBLIC "-//W3C//DTD SVG 20010904//EN"
 "http://www.w3.org/TR/2001/REC-SVG-20010904/DTD/svg10.dtd">
<svg version="1.0" xmlns="http://www.w3.org/2000/svg"
 width="1000.000000pt" height="1000.000000pt" viewBox="0 0 1000.000000 1000.000000"
 preserveAspectRatio="xMidYMid meet">
<metadata>
Created by potrace 1.11, written by Peter Selinger 2001-2013
</metadata>
<g transform="translate(0.000000,1000.000000) scale(0.100000,-0.100000)"
fill="#000000" stroke="none">
<path d="M3543 9577 c-4 -7 -39 -29 -78 -48 -67 -33 -70 -36 -108 -110 -37
-74 -63 -99 -105 -99 -9 0 -46 -18 -82 -40 -36 -22 -81 -45 -100 -51 -19 -6
-56 -25 -83 -41 -52 -33 -72 -31 -87 8 -13 34 -116 171 -144 190 -74 52 -225
132 -306 160 l-95 34 -665 0 -666 0 -69 -33 c-39 -19 -76 -41 -84 -50 -7 -10
-23 -17 -35 -17 -35 0 -183 -77 -203 -106 -32 -47 -87 -101 -119 -117 -17 -9
-39 -29 -49 -44 -10 -15 -50 -60 -89 -99 -39 -39 -76 -78 -83 -85 -7 -8 -33
-30 -58 -49 -25 -19 -48 -45 -51 -56 -3 -12 -21 -37 -40 -55 -19 -18 -34 -39
-34 -46 0 -16 -45 -107 -71 -145 -11 -14 -19 -33 -19 -42 0 -9 -4 -16 -10 -16
-7 0 -10 -1443 -10 -4310 l0 -4310 2067 0 2066 0 36 27 c68 51 140 116 147
132 3 9 8 28 10 44 5 35 71 125 126 170 24 20 58 56 77 81 51 67 366 363 436
408 33 22 112 65 175 96 108 53 123 64 237 177 67 66 141 138 165 160 24 22
75 85 113 139 101 143 141 186 176 186 33 0 54 30 45 65 -5 18 13 40 102 128
59 59 123 132 142 164 18 32 55 91 81 131 27 40 51 89 54 110 10 57 23 81 53
99 34 20 102 121 102 152 0 12 13 54 29 94 51 128 75 272 68 401 l-6 103 85
97 c47 53 89 96 94 96 5 0 12 10 16 23 4 12 20 37 35 55 28 32 29 35 29 148 0
105 -2 118 -27 167 -22 40 -29 69 -31 128 -4 76 -4 77 26 94 33 20 52 53 52
89 0 24 83 158 118 189 11 10 34 47 51 81 17 35 49 81 71 102 l40 39 0 85 c0
106 -17 171 -64 244 -20 31 -36 63 -36 70 0 15 -41 61 -103 113 -21 17 -37 40
-37 52 0 29 -29 100 -55 136 -12 17 -43 71 -69 120 -26 50 -58 103 -71 120
-23 28 -26 29 -58 17 -42 -15 -70 -15 -85 0 -22 22 -13 49 34 101 25 28 56 72
69 97 14 27 45 62 80 88 30 23 60 54 66 69 5 14 19 39 30 55 20 27 20 38 15
176 -4 81 -7 165 -8 187 -1 22 4 75 11 119 12 74 11 82 -9 129 -17 38 -20 61
-16 96 4 25 11 120 17 211 12 202 15 212 55 221 50 10 54 16 54 85 0 49 -3 64
-14 64 -17 0 -116 83 -224 187 -60 58 -84 74 -123 83 -30 7 -62 25 -84 46 -20
19 -45 34 -55 34 -27 0 -50 27 -50 59 0 19 -16 42 -61 86 -33 33 -68 74 -76
90 -21 39 -66 91 -117 133 -23 19 -48 49 -56 67 -14 31 -100 103 -171 145 -59
34 -218 161 -241 192 -24 31 -68 141 -68 167 0 7 -11 27 -25 45 -14 18 -25 46
-25 61 0 24 -68 172 -126 275 -7 14 -14 32 -14 41 0 9 -16 34 -35 55 -19 21
-44 57 -55 80 -12 23 -44 66 -73 96 -55 58 -140 161 -199 243 -39 55 -102 109
-143 125 -14 5 -52 28 -85 50 -36 25 -70 40 -89 40 -37 0 -66 12 -159 68 -40
24 -88 46 -107 49 -19 3 -42 14 -51 24 -16 18 -38 19 -410 19 -315 0 -395 -3
-401 -13z m167 -2969 c30 -11 75 -25 100 -32 24 -7 47 -19 51 -27 4 -8 25 -45
47 -84 21 -38 51 -113 66 -165 15 -52 43 -129 62 -171 19 -42 34 -80 34 -84 0
-4 8 -19 18 -33 31 -45 73 -173 62 -187 -6 -7 -49 -14 -103 -18 -102 -6 -140
-17 -177 -52 -45 -42 -131 -63 -295 -70 -130 -5 -157 -9 -200 -31 -39 -19 -73
-25 -156 -30 -120 -8 -131 -2 -106 49 60 124 86 215 90 312 0 17 -5 118 -12
225 -13 188 -15 196 -41 225 -14 17 -38 48 -53 71 -15 22 -41 53 -57 69 -51
48 -42 54 83 57 61 2 207 1 322 -1 177 -3 219 -6 265 -23z m-1096 -14 c21 -8
21 -50 0 -58 -20 -8 -44 10 -44 34 0 28 14 36 44 24z m2602 -4 c37 0 28 -13
-26 -40 -77 -37 -116 -75 -136 -128 -10 -26 -23 -54 -31 -63 -7 -8 -13 -23
-13 -31 0 -9 -18 -37 -39 -63 -22 -26 -42 -61 -46 -79 -4 -17 -10 -107 -14
-201 l-6 -170 -39 -3 c-22 -2 -56 3 -75 11 -20 8 -55 20 -78 26 -47 13 -64 42
-40 69 33 38 51 91 58 174 8 95 4 89 120 221 20 23 46 60 57 82 28 55 136 163
186 186 25 12 53 17 70 14 16 -3 39 -5 52 -5z m852 -43 c25 -12 54 -34 65 -49
12 -16 27 -28 34 -28 7 0 27 -13 45 -29 18 -15 60 -38 93 -50 77 -28 159 -75
210 -118 21 -18 57 -39 80 -45 60 -17 78 -36 72 -78 -17 -113 -27 -140 -76
-207 -51 -70 -74 -90 -125 -109 -16 -6 -33 -18 -38 -27 -4 -9 -12 -25 -16 -34
-16 -34 -82 -57 -162 -57 -148 -2 -339 13 -365 27 l-27 14 51 32 c88 57 88 57
95 258 l7 178 -30 90 c-39 113 -69 157 -128 191 -60 34 -96 66 -84 74 5 3 65
2 132 -2 96 -7 132 -13 167 -31z m-690 -24 c2 -8 -6 -13 -22 -13 -17 0 -26 5
-26 16 0 19 41 16 48 -3z m-3009 -27 c20 -22 24 -36 25 -108 1 -74 -2 -88 -26
-130 -21 -35 -41 -53 -82 -73 -63 -31 -89 -27 -111 16 -35 66 -37 222 -3 255
17 18 127 63 154 64 11 0 31 -11 43 -24z m-376 0 c8 -20 -25 -109 -45 -124
-10 -7 -18 -18 -18 -25 0 -6 -12 -28 -26 -48 -30 -44 -62 -152 -76 -261 -9
-67 -8 -84 10 -144 12 -38 19 -70 16 -73 -2 -3 -17 5 -32 17 -111 89 -195 148
-242 169 -30 14 -73 34 -95 44 -27 13 -51 17 -75 13 -26 -4 -45 0 -70 14 -19
12 -61 30 -93 42 -108 40 -110 74 -5 103 74 21 84 26 178 94 43 31 87 55 109
58 20 3 59 15 86 27 28 11 77 29 110 40 33 11 92 30 130 43 80 27 130 31 138
11z m3332 -66 c15 -16 17 -30 11 -81 -3 -34 -11 -68 -17 -75 -7 -9 -32 -14
-64 -14 -70 0 -89 21 -89 97 0 46 4 59 23 74 33 27 112 26 136 -1z m-2169
-106 c4 -31 2 -45 -11 -57 -22 -23 -30 -16 -49 41 -16 46 -16 47 5 65 29 23
46 8 55 -49z m-240 -26 c41 -49 54 -90 54 -169 0 -71 0 -72 -47 -127 -56 -66
-91 -82 -177 -82 -62 0 -66 1 -96 38 -37 45 -47 81 -56 194 -6 78 -5 89 15
122 24 38 54 52 99 43 15 -3 36 -1 47 3 11 5 45 9 77 9 52 1 58 -2 84 -31z
m2942 6 c36 -10 52 -53 52 -145 0 -65 -4 -88 -21 -115 -31 -50 -50 -57 -136
-49 -105 10 -113 19 -113 138 0 115 18 152 77 162 21 4 43 8 48 10 17 6 69 5
93 -1z m-528 -243 c15 -29 12 -77 -6 -95 -17 -18 -80 -21 -104 -6 -20 12 -19
98 1 111 8 5 33 9 56 9 32 0 45 -5 53 -19z m-2870 -55 c17 -21 30 -127 18
-149 -13 -24 -130 -79 -151 -71 -28 11 -49 129 -29 161 11 17 113 73 133 73 9
0 22 -7 29 -14z m3508 -9 c2 -10 -3 -17 -12 -17 -10 0 -16 9 -16 21 0 24 23
21 28 -4z m-110 -115 c3 -16 -2 -22 -17 -22 -26 0 -36 17 -20 36 16 19 33 13
37 -14z"/>
<path d="M8765 4801 c-46 -21 -68 -55 -89 -132 -7 -30 -34 -119 -60 -199 -25
-80 -49 -179 -54 -220 -11 -94 3 -1195 17 -1310 5 -47 12 -124 15 -172 3 -47
9 -111 12 -142 l7 -56 -46 0 c-62 0 -77 22 -77 112 0 52 -7 86 -29 141 -16 39
-44 115 -62 167 -19 52 -49 115 -67 140 -32 45 -78 115 -146 222 -26 41 -48
62 -81 78 -43 21 -52 21 -417 18 l-373 -3 -88 -50 c-48 -27 -102 -62 -120 -76
-31 -26 -31 -28 -19 -63 13 -35 11 -40 -42 -149 -30 -61 -62 -143 -71 -182
-16 -72 -73 -215 -86 -215 -4 0 -21 -13 -38 -29 -29 -27 -31 -33 -31 -103 1
-129 18 -279 36 -305 11 -18 13 -28 5 -36 -6 -6 -64 -14 -129 -17 -124 -6
-139 -11 -219 -69 -38 -27 -43 -36 -43 -69 0 -40 19 -64 87 -110 17 -12 43
-42 57 -67 28 -47 58 -68 116 -79 45 -9 186 -54 225 -72 22 -10 43 -37 77
-102 63 -117 87 -259 89 -512 0 -96 4 -249 8 -340 l7 -165 42 -94 c23 -51 64
-123 91 -160 27 -36 69 -98 93 -136 23 -39 74 -110 113 -158 l70 -87 1075 2
1075 3 20 40 c11 21 53 98 94 170 93 166 109 206 126 329 21 145 21 830 0 982
-17 124 -41 253 -61 334 -17 66 -19 489 -4 590 11 66 57 247 91 354 11 33 19
74 19 92 0 18 5 36 10 39 16 10 13 756 -2 787 -27 51 -91 128 -122 147 -37 23
-107 28 -152 11 -43 -17 -54 1 -54 85 0 123 -14 175 -60 218 l-39 37 -121 0
c-141 0 -140 -1 -116 95 21 85 22 265 0 328 -17 51 -77 104 -171 151 -49 25
-61 26 -200 26 -122 0 -155 -4 -188 -19z m-1033 -1947 c115 -5 148 -10 152
-21 4 -8 3 -20 -1 -26 -4 -7 -10 -70 -14 -142 -4 -86 -11 -140 -21 -160 -28
-55 -35 -230 -23 -540 l7 -160 -56 -83 c-30 -46 -58 -92 -61 -103 -8 -26 -21
-24 -96 11 -95 44 -105 55 -132 150 -32 113 -50 152 -94 214 -63 88 -135 156
-210 198 -40 22 -73 44 -73 49 0 4 24 26 53 49 55 41 97 88 134 150 28 46 94
215 122 315 36 122 32 118 104 111 34 -3 128 -9 209 -12z"/>
</g>
</svg>
